<?xml version="1.0" encoding="UTF-8"?>
<svg xmlns="http://www.w3.org/2000/svg" xmlns:xlink="http://www.w3.org/1999/xlink" width="128px" height="128px" viewBox="0 0 128 128" version="1.1">
<defs>
<linearGradient id="linear0" gradientUnits="userSpaceOnUse" x1="27.99999" y1="-274" x2="115.999992" y2="-274" gradientTransform="matrix(-1,0,0,-1,135.999985,-172)">
<stop offset="0" style="stop-color:rgb(75.294119%,74.901962%,73.725492%);stop-opacity:1;"/>
<stop offset="0.0454545" style="stop-color:rgb(96.470588%,96.078432%,95.686275%);stop-opacity:1;"/>
<stop offset="0.0909091" style="stop-color:rgb(87.058824%,86.666667%,85.490197%);stop-opacity:1;"/>
<stop offset="0.909091" style="stop-color:rgb(87.058824%,86.666667%,85.490197%);stop-opacity:1;"/>
<stop offset="0.954545" style="stop-color:rgb(96.470588%,96.078432%,95.686275%);stop-opacity:1;"/>
<stop offset="1" style="stop-color:rgb(75.294119%,74.901962%,73.725492%);stop-opacity:1;"/>
</linearGradient>
<filter id="alpha" filterUnits="objectBoundingBox" x="0%" y="0%" width="100%" height="100%">
  <feColorMatrix type="matrix" in="SourceGraphic" values="0 0 0 0 1 0 0 0 0 1 0 0 0 0 1 0 0 0 1 0"/>
</filter>
<mask id="mask0">
  <g filter="url(#alpha)">
<rect x="0" y="0" width="128" height="128" style="fill:rgb(0%,0%,0%);fill-opacity:0.1;stroke:none;"/>
  </g>
</mask>
<clipPath id="clip1">
  <rect x="0" y="0" width="192" height="152"/>
</clipPath>
<g id="surface38626" clip-path="url(#clip1)">
<path style=" stroke:none;fill-rule:nonzero;fill:rgb(0%,0%,0%);fill-opacity:1;" d="M 52 102 C 50.972656 102 49.941406 102.253906 49.015625 102.765625 C 48.054688 103.296875 47.28125 104.074219 46.753906 104.984375 C 46.164062 104.421875 45.292969 104 44 104 L 24 104 L 24 108 L 45.214844 108 C 45.667969 108 45.929688 108.300781 45.988281 108.742188 C 45.992188 108.777344 46 108.808594 46 108.84375 L 46 110 L 24 110 L 24 114 L 37.949219 114 L 33.949219 118 L 24 118 L 24 120 L 32.273438 120 C 31.761719 121.128906 31.828125 122.628906 33.382812 124.226562 L 37.605469 120 L 43.152344 120 C 45.820312 120 48 117.820312 48 115.15625 L 48 114.03125 L 56 114.03125 L 56 115.15625 C 56 117.820312 58.179688 120 60.84375 120 L 66.421875 120 L 70.617188 124.195312 C 72.160156 122.613281 72.238281 121.125 71.734375 120 L 79.152344 120 C 81.820312 120 84 117.820312 84 115.15625 L 84 114.03125 L 86 114.03125 L 86 106 C 86 104.9375 85.171875 104 84 104 L 60 104 C 60 104 58.421875 104.003906 57.246094 104.996094 C 56.722656 104.078125 55.949219 103.296875 54.980469 102.765625 C 54.058594 102.253906 53.027344 102 52 102 Z M 52 104.003906 C 52.699219 104.003906 53.394531 104.175781 54.015625 104.515625 C 55.261719 105.203125 56 106.445312 56 107.777344 C 56 107.816406 56 107.855469 56.003906 107.894531 C 56.003906 107.933594 56 107.964844 56 108 L 56 110 L 48 110 L 48 108 C 48 108 47.992188 107.921875 47.992188 107.914062 C 47.996094 107.867188 48 107.824219 48 107.777344 C 48 106.445312 48.738281 105.203125 49.980469 104.515625 C 50.605469 104.175781 51.300781 104.003906 52 104.003906 Z M 58.785156 108.015625 L 81.867188 108.015625 C 81.945312 108.277344 82 108.554688 82 108.84375 L 82 110.03125 L 62.105469 110.03125 L 62.078125 110 L 58 110 L 58 108.84375 C 58 108.8125 58.007812 108.78125 58.007812 108.746094 C 58.035156 108.308594 58.335938 108.015625 58.785156 108.015625 Z M 43.578125 114.03125 L 46 114.03125 L 46 115.15625 C 46 116.746094 44.746094 118 43.152344 118 L 39.605469 118 Z M 58 114.03125 L 60.449219 114.03125 L 64.421875 118 L 60.84375 118 C 59.253906 118 58 116.746094 58 115.15625 Z M 66.105469 114.03125 L 82 114.03125 L 82 115.15625 C 82 116.746094 80.746094 118 79.152344 118 L 70.078125 118 Z M 66.105469 114.03125 "/>
</g>
<linearGradient id="linear1" gradientUnits="userSpaceOnUse" x1="27.99999" y1="-274" x2="115.999992" y2="-274" gradientTransform="matrix(-1,0,0,-1,135.999985,-172)">
<stop offset="0" style="stop-color:rgb(75.294119%,74.901962%,73.725492%);stop-opacity:1;"/>
<stop offset="0.0454545" style="stop-color:rgb(96.470588%,96.078432%,95.686275%);stop-opacity:1;"/>
<stop offset="0.0909091" style="stop-color:rgb(87.058824%,86.666667%,85.490197%);stop-opacity:1;"/>
<stop offset="0.909091" style="stop-color:rgb(87.058824%,86.666667%,85.490197%);stop-opacity:1;"/>
<stop offset="0.954545" style="stop-color:rgb(96.470588%,96.078432%,95.686275%);stop-opacity:1;"/>
<stop offset="1" style="stop-color:rgb(75.294119%,74.901962%,73.725492%);stop-opacity:1;"/>
</linearGradient>
<mask id="mask2">
  <g filter="url(#alpha)">
<rect x="0" y="0" width="128" height="128" style="fill:rgb(0%,0%,0%);fill-opacity:0.1;stroke:none;"/>
  </g>
</mask>
<clipPath id="clip4">
  <rect x="0" y="0" width="192" height="152"/>
</clipPath>
<g id="surface38626" clip-path="url(#clip4)">
<path style=" stroke:none;fill-rule:nonzero;fill:rgb(0%,0%,0%);fill-opacity:1;" d="M 52 102 C 50.972656 102 49.941406 102.253906 49.015625 102.765625 C 48.054688 103.296875 47.28125 104.074219 46.753906 104.984375 C 46.164062 104.421875 45.292969 104 44 104 L 24 104 L 24 108 L 45.214844 108 C 45.667969 108 45.929688 108.300781 45.988281 108.742188 C 45.992188 108.777344 46 108.808594 46 108.84375 L 46 110 L 24 110 L 24 114 L 37.949219 114 L 33.949219 118 L 24 118 L 24 120 L 32.273438 120 C 31.761719 121.128906 31.828125 122.628906 33.382812 124.226562 L 37.605469 120 L 43.152344 120 C 45.820312 120 48 117.820312 48 115.15625 L 48 114.03125 L 56 114.03125 L 56 115.15625 C 56 117.820312 58.179688 120 60.84375 120 L 66.421875 120 L 70.617188 124.195312 C 72.160156 122.613281 72.238281 121.125 71.734375 120 L 79.152344 120 C 81.820312 120 84 117.820312 84 115.15625 L 84 114.03125 L 86 114.03125 L 86 106 C 86 104.9375 85.171875 104 84 104 L 60 104 C 60 104 58.421875 104.003906 57.246094 104.996094 C 56.722656 104.078125 55.949219 103.296875 54.980469 102.765625 C 54.058594 102.253906 53.027344 102 52 102 Z M 52 104.003906 C 52.699219 104.003906 53.394531 104.175781 54.015625 104.515625 C 55.261719 105.203125 56 106.445312 56 107.777344 C 56 107.816406 56 107.855469 56.003906 107.894531 C 56.003906 107.933594 56 107.964844 56 108 L 56 110 L 48 110 L 48 108 C 48 108 47.992188 107.921875 47.992188 107.914062 C 47.996094 107.867188 48 107.824219 48 107.777344 C 48 106.445312 48.738281 105.203125 49.980469 104.515625 C 50.605469 104.175781 51.300781 104.003906 52 104.003906 Z M 58.785156 108.015625 L 81.867188 108.015625 C 81.945312 108.277344 82 108.554688 82 108.84375 L 82 110.03125 L 62.105469 110.03125 L 62.078125 110 L 58 110 L 58 108.84375 C 58 108.8125 58.007812 108.78125 58.007812 108.746094 C 58.035156 108.308594 58.335938 108.015625 58.785156 108.015625 Z M 43.578125 114.03125 L 46 114.03125 L 46 115.15625 C 46 116.746094 44.746094 118 43.152344 118 L 39.605469 118 Z M 58 114.03125 L 60.449219 114.03125 L 64.421875 118 L 60.84375 118 C 59.253906 118 58 116.746094 58 115.15625 Z M 66.105469 114.03125 L 82 114.03125 L 82 115.15625 C 82 116.746094 80.746094 118 79.152344 118 L 70.078125 118 Z M 66.105469 114.03125 "/>
</g>
<clipPath id="clip3">
  <rect x="0" y="0" width="128" height="128"/>
</clipPath>
<g id="surface38640" clip-path="url(#clip3)">
<path style=" stroke:none;fill-rule:nonzero;fill:rgb(87.058824%,86.666667%,85.490197%);fill-opacity:1;" d="M 28 61 L 100 61 C 104.417969 61 108 64.582031 108 69 L 108 112 C 108 116.417969 104.417969 120 100 120 L 28 120 C 23.582031 120 20 116.417969 20 112 L 20 69 C 20 64.582031 23.582031 61 28 61 Z M 28 61 "/>
<path style=" stroke:none;fill-rule:nonzero;fill:url(#linear1);" d="M 100 120 L 28 120 C 23.582031 120 20 116.417969 20 112 L 20 88 C 20 83.582031 23.582031 80 28 80 L 100 80 C 104.417969 80 108 83.582031 108 88 L 108 112 C 108 116.417969 104.417969 120 100 120 Z M 100 120 "/>
<path style=" stroke:none;fill-rule:nonzero;fill:rgb(96.470588%,96.078432%,95.686275%);fill-opacity:1;" d="M 28 8 L 100 8 C 104.417969 8 108 11.582031 108 16 L 108 104 C 108 108.417969 104.417969 112 100 112 L 28 112 C 23.582031 112 20 108.417969 20 104 L 20 16 C 20 11.582031 23.582031 8 28 8 Z M 28 8 "/>
<path style=" stroke:none;fill-rule:nonzero;fill:rgb(87.058824%,86.666667%,85.490197%);fill-opacity:1;" d="M 28 76 L 28 86 L 92 86 L 92 82 L 100 82 L 100 76 Z M 28 76 "/>
<use xlink:href="#surface38626" transform="matrix(1,0,0,1,-4,-20)" mask="url(#mask2)"/>
<path style=" stroke:none;fill-rule:nonzero;fill:rgb(58.039218%,57.647061%,56.470591%);fill-opacity:1;" d="M 29.382812 102.226562 C 27.269531 100.0625 27.890625 98.0625 29.007812 96.945312 L 37.921875 88.03125 L 82 88.03125 L 82 92.03125 L 39.578125 92.03125 Z M 29.382812 102.226562 "/>
<path style=" stroke:none;fill-rule:nonzero;fill:rgb(58.039218%,57.647061%,56.470591%);fill-opacity:1;" d="M 66.617188 102.195312 C 68.730469 100.03125 68.109375 98.03125 66.992188 96.914062 L 58.078125 88 L 14 88 L 14 92 L 56.421875 92 Z M 66.617188 102.195312 "/>
<path style="fill:none;stroke-width:8;stroke-linecap:round;stroke-linejoin:miter;stroke:rgb(10.196079%,37.254903%,70.588237%);stroke-opacity:1;stroke-miterlimit:4;" d="M -515.5002 99.240234 C -515.5002 106.068359 -519.3127 112.365234 -525.5002 115.787109 C -531.6877 119.193359 -539.3127 119.193359 -545.5002 115.787109 C -551.6877 112.365234 -555.5002 106.068359 -555.5002 99.240234 " transform="matrix(-0.25,0,0,-0.25,-85.87505,110.587402)"/>
<path style=" stroke:none;fill-rule:nonzero;fill:rgb(100%,100%,100%);fill-opacity:0.440945;" d="M 40.730469 97 L 19.269531 97 C 18.011719 97 17 95.988281 17 94.730469 L 17 87.269531 C 17 86.011719 18.011719 85 19.269531 85 L 40.730469 85 C 41.988281 85 43 86.011719 43 87.269531 L 43 94.730469 C 43 95.988281 41.988281 97 40.730469 97 Z M 40.730469 97 "/>
<path style="fill:none;stroke-width:8;stroke-linecap:round;stroke-linejoin:miter;stroke:rgb(10.196079%,37.254903%,70.588237%);stroke-opacity:1;stroke-miterlimit:4;" d="M 426.8752 54.349609 L 500.1252 54.349609 C 508.640825 54.349609 515.5002 61.208984 515.5002 69.724609 L 515.5002 94.974609 C 515.5002 103.490234 508.640825 110.349609 500.1252 110.349609 L 426.8752 110.349609 C 418.359575 110.349609 411.5002 103.490234 411.5002 94.974609 L 411.5002 69.724609 C 411.5002 61.208984 418.359575 54.349609 426.8752 54.349609 Z M 426.8752 54.349609 " transform="matrix(0.25,0,0,-0.25,-85.87505,110.587402)"/>
<path style=" stroke:none;fill-rule:nonzero;fill:rgb(100%,100%,100%);fill-opacity:0.440945;" d="M 76.730469 97 L 55.269531 97 C 54.011719 97 53 95.988281 53 94.730469 L 53 87.269531 C 53 86.011719 54.011719 85 55.269531 85 L 76.730469 85 C 77.988281 85 79 86.011719 79 87.269531 L 79 94.730469 C 79 95.988281 77.988281 97 76.730469 97 Z M 76.730469 97 "/>
<path style="fill:none;stroke-width:8;stroke-linecap:round;stroke-linejoin:miter;stroke:rgb(10.196079%,37.254903%,70.588237%);stroke-opacity:1;stroke-miterlimit:4;" d="M 570.8752 54.349609 L 644.1252 54.349609 C 652.640825 54.349609 659.5002 61.208984 659.5002 69.724609 L 659.5002 94.974609 C 659.5002 103.490234 652.640825 110.349609 644.1252 110.349609 L 570.8752 110.349609 C 562.359575 110.349609 555.5002 103.490234 555.5002 94.974609 L 555.5002 69.724609 C 555.5002 61.208984 562.359575 54.349609 570.8752 54.349609 Z M 570.8752 54.349609 " transform="matrix(0.25,0,0,-0.25,-85.87505,110.587402)"/>
<path style=" stroke:none;fill-rule:nonzero;fill:rgb(10.196079%,37.254903%,70.588237%);fill-opacity:1;" d="M 82 84 C 82 82.9375 81.171875 82 80 82 L 56 82 C 56 82 52 82 52 86 L 52 90 L 54 90 L 54 86.800781 C 54 86.332031 54.316406 86.015625 54.785156 86.015625 L 78.214844 86.015625 C 78.683594 86.015625 79.140625 86.351562 79 86.800781 L 79 90 L 80 90 C 82 90 82 92 82 92 Z M 44 90 L 44 86 C 44 86 44 82 40 82 L 16 82 C 15.121094 82 14 82.90625 14 84 L 14 92 C 14 92 14 90 16 90 L 17 90 L 17 86.785156 C 17 86.316406 17.316406 86 17.785156 86 L 41.214844 86 C 41.683594 86 41.953125 86.320312 42 86.785156 L 42.125 90 Z M 44 90 "/>
<path style=" stroke:none;fill-rule:nonzero;fill:rgb(96.470588%,38.039216%,31.764707%);fill-opacity:1;" d="M 68 38 L 100 38 L 100 70 L 68 70 Z M 68 38 "/>
<path style=" stroke:none;fill-rule:nonzero;fill:rgb(100%,100%,100%);fill-opacity:1;" d="M 69.710938 63.207031 C 74.890625 61.761719 79.785156 59.300781 84.039062 56.011719 C 85.480469 54.898438 86.878906 53.65625 87.757812 52.0625 C 88.195312 51.261719 88.5 50.382812 88.582031 49.476562 C 88.664062 48.570312 88.519531 47.636719 88.113281 46.820312 C 87.765625 46.117188 87.226562 45.515625 86.589844 45.066406 C 85.949219 44.613281 85.210938 44.308594 84.445312 44.148438 C 82.910156 43.828125 81.300781 44.082031 79.835938 44.636719 C 78.074219 45.304688 76.460938 46.421875 75.328125 47.929688 C 74.195312 49.433594 73.5625 51.339844 73.707031 53.21875 C 73.804688 54.4375 74.21875 55.625 74.863281 56.664062 C 75.507812 57.703125 76.371094 58.597656 77.359375 59.320312 C 79.335938 60.761719 81.753906 61.492188 84.179688 61.800781 C 89.699219 62.507812 95.464844 61.085938 100.023438 57.898438 L 100 52.707031 C 96.425781 56.652344 91.34375 59.191406 86.042969 59.683594 C 83.757812 59.894531 81.375 59.722656 79.308594 58.71875 C 78.277344 58.214844 77.335938 57.507812 76.617188 56.613281 C 75.898438 55.71875 75.402344 54.632812 75.261719 53.492188 C 75.054688 51.828125 75.621094 50.113281 76.660156 48.796875 C 77.699219 47.484375 79.1875 46.558594 80.785156 46.058594 C 81.667969 45.78125 82.605469 45.628906 83.523438 45.746094 C 84.441406 45.863281 85.339844 46.273438 85.9375 46.980469 C 86.421875 47.550781 86.6875 48.292969 86.734375 49.042969 C 86.78125 49.789062 86.617188 50.542969 86.320312 51.230469 C 85.722656 52.605469 84.625 53.695312 83.507812 54.691406 C 79.449219 58.300781 74.757812 61.199219 69.710938 63.207031 Z M 69.710938 63.207031 "/>
<path style=" stroke:none;fill-rule:evenodd;fill:rgb(46.666667%,46.27451%,48.235294%);fill-opacity:1;" d="M 28 20 L 28 24 L 68 24 L 68 20 Z M 28 20 "/>
<path style=" stroke:none;fill-rule:nonzero;fill:rgb(87.058824%,86.666667%,85.490197%);fill-opacity:1;" d="M 28 50 L 64 50 L 64 68 L 48 68 L 48 72 L 28 72 Z M 28 50 "/>
<path style=" stroke:none;fill-rule:nonzero;fill:rgb(87.058824%,86.666667%,85.490197%);fill-opacity:1;" d="M 64 34 L 64 46 L 28 46 L 28 28 L 100 28 L 100 34 Z M 64 34 "/>
<path style=" stroke:none;fill-rule:nonzero;fill:rgb(75.294119%,74.901962%,73.725492%);fill-opacity:0.271654;" d="M 108 108.65625 C 107.917969 112.746094 104.621094 116 100.507812 116 L 100.007812 116 L 100.007812 117 L 100.507812 117 C 103.730469 117 106.53125 115.210938 107.96875 112.574219 C 107.984375 112.382812 108 112.191406 108 112 Z M 66 116 L 100 117 L 100 116 Z M 66 116 "/>
</g>
<clipPath id="clip2">
  <rect x="0" y="0" width="128" height="128"/>
</clipPath>
<g id="surface38643" clip-path="url(#clip2)" filter="url(#alpha)">
<use xlink:href="#surface38640"/>
</g>
<mask id="mask1">
<use xlink:href="#surface38643"/>
</mask>
<mask id="mask3">
  <g filter="url(#alpha)">
<rect x="0" y="0" width="128" height="128" style="fill:rgb(0%,0%,0%);fill-opacity:0.8;stroke:none;"/>
  </g>
</mask>
<linearGradient id="linear2" gradientUnits="userSpaceOnUse" x1="300" y1="235" x2="428" y2="235" gradientTransform="matrix(0.000000000000000023,0.37,-0.98462,0.00000000000000006,295.38501,-30.360001)">
<stop offset="0" style="stop-color:rgb(97.647059%,94.117647%,41.960785%);stop-opacity:1;"/>
<stop offset="1" style="stop-color:rgb(96.078432%,76.078433%,6.666667%);stop-opacity:1;"/>
</linearGradient>
<clipPath id="clip6">
  <rect x="0" y="0" width="128" height="128"/>
</clipPath>
<g id="surface38637" clip-path="url(#clip6)">
<path style=" stroke:none;fill-rule:nonzero;fill:url(#linear2);" d="M 128 80.640625 L 128 128 L 0 128 L 0 80.640625 Z M 128 80.640625 "/>
<path style=" stroke:none;fill-rule:nonzero;fill:rgb(0%,0%,0%);fill-opacity:1;" d="M 13.308594 80.640625 L 60.664062 128 L 81.878906 128 L 34.519531 80.640625 Z M 55.730469 80.640625 L 103.09375 128 L 124.308594 128 L 76.945312 80.640625 Z M 98.160156 80.640625 L 128 110.480469 L 128 89.269531 L 119.371094 80.640625 Z M 0 88.546875 L 0 109.761719 L 18.238281 128 L 39.453125 128 Z M 0 88.546875 "/>
</g>
<clipPath id="clip5">
  <rect x="0" y="0" width="128" height="128"/>
</clipPath>
<g id="surface38642" clip-path="url(#clip5)">
<use xlink:href="#surface38637" mask="url(#mask3)"/>
</g>
</defs>
<g id="surface38622">
<path style=" stroke:none;fill-rule:nonzero;fill:rgb(87.058824%,86.666667%,85.490197%);fill-opacity:1;" d="M 28 61 L 100 61 C 104.417969 61 108 64.582031 108 69 L 108 112 C 108 116.417969 104.417969 120 100 120 L 28 120 C 23.582031 120 20 116.417969 20 112 L 20 69 C 20 64.582031 23.582031 61 28 61 Z M 28 61 "/>
<path style=" stroke:none;fill-rule:nonzero;fill:url(#linear0);" d="M 100 120 L 28 120 C 23.582031 120 20 116.417969 20 112 L 20 88 C 20 83.582031 23.582031 80 28 80 L 100 80 C 104.417969 80 108 83.582031 108 88 L 108 112 C 108 116.417969 104.417969 120 100 120 Z M 100 120 "/>
<path style=" stroke:none;fill-rule:nonzero;fill:rgb(96.470588%,96.078432%,95.686275%);fill-opacity:1;" d="M 28 8 L 100 8 C 104.417969 8 108 11.582031 108 16 L 108 104 C 108 108.417969 104.417969 112 100 112 L 28 112 C 23.582031 112 20 108.417969 20 104 L 20 16 C 20 11.582031 23.582031 8 28 8 Z M 28 8 "/>
<path style=" stroke:none;fill-rule:nonzero;fill:rgb(87.058824%,86.666667%,85.490197%);fill-opacity:1;" d="M 28 76 L 28 86 L 92 86 L 92 82 L 100 82 L 100 76 Z M 28 76 "/>
<use xlink:href="#surface38626" transform="matrix(1,0,0,1,-4,-20)" mask="url(#mask0)"/>
<path style=" stroke:none;fill-rule:nonzero;fill:rgb(58.039218%,57.647061%,56.470591%);fill-opacity:1;" d="M 29.382812 102.226562 C 27.269531 100.0625 27.890625 98.0625 29.007812 96.945312 L 37.921875 88.03125 L 82 88.03125 L 82 92.03125 L 39.578125 92.03125 Z M 29.382812 102.226562 "/>
<path style=" stroke:none;fill-rule:nonzero;fill:rgb(58.039218%,57.647061%,56.470591%);fill-opacity:1;" d="M 66.617188 102.195312 C 68.730469 100.03125 68.109375 98.03125 66.992188 96.914062 L 58.078125 88 L 14 88 L 14 92 L 56.421875 92 Z M 66.617188 102.195312 "/>
<path style="fill:none;stroke-width:8;stroke-linecap:round;stroke-linejoin:miter;stroke:rgb(10.196079%,37.254903%,70.588237%);stroke-opacity:1;stroke-miterlimit:4;" d="M -515.5002 99.240234 C -515.5002 106.068359 -519.3127 112.365234 -525.5002 115.787109 C -531.6877 119.193359 -539.3127 119.193359 -545.5002 115.787109 C -551.6877 112.365234 -555.5002 106.068359 -555.5002 99.240234 " transform="matrix(-0.25,0,0,-0.25,-85.87505,110.587402)"/>
<path style=" stroke:none;fill-rule:nonzero;fill:rgb(100%,100%,100%);fill-opacity:0.440945;" d="M 40.730469 97 L 19.269531 97 C 18.011719 97 17 95.988281 17 94.730469 L 17 87.269531 C 17 86.011719 18.011719 85 19.269531 85 L 40.730469 85 C 41.988281 85 43 86.011719 43 87.269531 L 43 94.730469 C 43 95.988281 41.988281 97 40.730469 97 Z M 40.730469 97 "/>
<path style="fill:none;stroke-width:8;stroke-linecap:round;stroke-linejoin:miter;stroke:rgb(10.196079%,37.254903%,70.588237%);stroke-opacity:1;stroke-miterlimit:4;" d="M 426.8752 54.349609 L 500.1252 54.349609 C 508.640825 54.349609 515.5002 61.208984 515.5002 69.724609 L 515.5002 94.974609 C 515.5002 103.490234 508.640825 110.349609 500.1252 110.349609 L 426.8752 110.349609 C 418.359575 110.349609 411.5002 103.490234 411.5002 94.974609 L 411.5002 69.724609 C 411.5002 61.208984 418.359575 54.349609 426.8752 54.349609 Z M 426.8752 54.349609 " transform="matrix(0.25,0,0,-0.25,-85.87505,110.587402)"/>
<path style=" stroke:none;fill-rule:nonzero;fill:rgb(100%,100%,100%);fill-opacity:0.440945;" d="M 76.730469 97 L 55.269531 97 C 54.011719 97 53 95.988281 53 94.730469 L 53 87.269531 C 53 86.011719 54.011719 85 55.269531 85 L 76.730469 85 C 77.988281 85 79 86.011719 79 87.269531 L 79 94.730469 C 79 95.988281 77.988281 97 76.730469 97 Z M 76.730469 97 "/>
<path style="fill:none;stroke-width:8;stroke-linecap:round;stroke-linejoin:miter;stroke:rgb(10.196079%,37.254903%,70.588237%);stroke-opacity:1;stroke-miterlimit:4;" d="M 570.8752 54.349609 L 644.1252 54.349609 C 652.640825 54.349609 659.5002 61.208984 659.5002 69.724609 L 659.5002 94.974609 C 659.5002 103.490234 652.640825 110.349609 644.1252 110.349609 L 570.8752 110.349609 C 562.359575 110.349609 555.5002 103.490234 555.5002 94.974609 L 555.5002 69.724609 C 555.5002 61.208984 562.359575 54.349609 570.8752 54.349609 Z M 570.8752 54.349609 " transform="matrix(0.25,0,0,-0.25,-85.87505,110.587402)"/>
<path style=" stroke:none;fill-rule:nonzero;fill:rgb(10.196079%,37.254903%,70.588237%);fill-opacity:1;" d="M 82 84 C 82 82.9375 81.171875 82 80 82 L 56 82 C 56 82 52 82 52 86 L 52 90 L 54 90 L 54 86.800781 C 54 86.332031 54.316406 86.015625 54.785156 86.015625 L 78.214844 86.015625 C 78.683594 86.015625 79.140625 86.351562 79 86.800781 L 79 90 L 80 90 C 82 90 82 92 82 92 Z M 44 90 L 44 86 C 44 86 44 82 40 82 L 16 82 C 15.121094 82 14 82.90625 14 84 L 14 92 C 14 92 14 90 16 90 L 17 90 L 17 86.785156 C 17 86.316406 17.316406 86 17.785156 86 L 41.214844 86 C 41.683594 86 41.953125 86.320312 42 86.785156 L 42.125 90 Z M 44 90 "/>
<path style=" stroke:none;fill-rule:nonzero;fill:rgb(96.470588%,38.039216%,31.764707%);fill-opacity:1;" d="M 68 38 L 100 38 L 100 70 L 68 70 Z M 68 38 "/>
<path style=" stroke:none;fill-rule:nonzero;fill:rgb(100%,100%,100%);fill-opacity:1;" d="M 69.710938 63.207031 C 74.890625 61.761719 79.785156 59.300781 84.039062 56.011719 C 85.480469 54.898438 86.878906 53.65625 87.757812 52.0625 C 88.195312 51.261719 88.5 50.382812 88.582031 49.476562 C 88.664062 48.570312 88.519531 47.636719 88.113281 46.820312 C 87.765625 46.117188 87.226562 45.515625 86.589844 45.066406 C 85.949219 44.613281 85.210938 44.308594 84.445312 44.148438 C 82.910156 43.828125 81.300781 44.082031 79.835938 44.636719 C 78.074219 45.304688 76.460938 46.421875 75.328125 47.929688 C 74.195312 49.433594 73.5625 51.339844 73.707031 53.21875 C 73.804688 54.4375 74.21875 55.625 74.863281 56.664062 C 75.507812 57.703125 76.371094 58.597656 77.359375 59.320312 C 79.335938 60.761719 81.753906 61.492188 84.179688 61.800781 C 89.699219 62.507812 95.464844 61.085938 100.023438 57.898438 L 100 52.707031 C 96.425781 56.652344 91.34375 59.191406 86.042969 59.683594 C 83.757812 59.894531 81.375 59.722656 79.308594 58.71875 C 78.277344 58.214844 77.335938 57.507812 76.617188 56.613281 C 75.898438 55.71875 75.402344 54.632812 75.261719 53.492188 C 75.054688 51.828125 75.621094 50.113281 76.660156 48.796875 C 77.699219 47.484375 79.1875 46.558594 80.785156 46.058594 C 81.667969 45.78125 82.605469 45.628906 83.523438 45.746094 C 84.441406 45.863281 85.339844 46.273438 85.9375 46.980469 C 86.421875 47.550781 86.6875 48.292969 86.734375 49.042969 C 86.78125 49.789062 86.617188 50.542969 86.320312 51.230469 C 85.722656 52.605469 84.625 53.695312 83.507812 54.691406 C 79.449219 58.300781 74.757812 61.199219 69.710938 63.207031 Z M 69.710938 63.207031 "/>
<path style=" stroke:none;fill-rule:evenodd;fill:rgb(46.666667%,46.27451%,48.235294%);fill-opacity:1;" d="M 28 20 L 28 24 L 68 24 L 68 20 Z M 28 20 "/>
<path style=" stroke:none;fill-rule:nonzero;fill:rgb(87.058824%,86.666667%,85.490197%);fill-opacity:1;" d="M 28 50 L 64 50 L 64 68 L 48 68 L 48 72 L 28 72 Z M 28 50 "/>
<path style=" stroke:none;fill-rule:nonzero;fill:rgb(87.058824%,86.666667%,85.490197%);fill-opacity:1;" d="M 64 34 L 64 46 L 28 46 L 28 28 L 100 28 L 100 34 Z M 64 34 "/>
<path style=" stroke:none;fill-rule:nonzero;fill:rgb(75.294119%,74.901962%,73.725492%);fill-opacity:0.271654;" d="M 108 108.65625 C 107.917969 112.746094 104.621094 116 100.507812 116 L 100.007812 116 L 100.007812 117 L 100.507812 117 C 103.730469 117 106.53125 115.210938 107.96875 112.574219 C 107.984375 112.382812 108 112.191406 108 112 Z M 66 116 L 100 117 L 100 116 Z M 66 116 "/>
<use xlink:href="#surface38642" mask="url(#mask1)"/>
</g>
</svg>
