<?xml version="1.0" encoding="UTF-8" standalone="no"?>
<svg
   xmlns:dc="http://purl.org/dc/elements/1.1/"
   xmlns:cc="http://creativecommons.org/ns#"
   xmlns:rdf="http://www.w3.org/1999/02/22-rdf-syntax-ns#"
   xmlns:svg="http://www.w3.org/2000/svg"
   xmlns="http://www.w3.org/2000/svg"
   xmlns:sodipodi="http://sodipodi.sourceforge.net/DTD/sodipodi-0.dtd"
   xmlns:inkscape="http://www.inkscape.org/namespaces/inkscape"
   width="16"
   height="16"
   version="1.1"
   id="svg878"
   sodipodi:docname="format-text-underline-symbolic.svg"
   inkscape:version="0.92.3 (2405546, 2018-03-11)">
  <metadata
     id="metadata884">
    <rdf:RDF>
      <cc:Work
         rdf:about="">
        <dc:format>image/svg+xml</dc:format>
        <dc:type
           rdf:resource="http://purl.org/dc/dcmitype/StillImage" />
        <dc:title></dc:title>
      </cc:Work>
    </rdf:RDF>
  </metadata>
  <defs
     id="defs882" />
  <sodipodi:namedview
     pagecolor="#ffffff"
     bordercolor="#666666"
     borderopacity="1"
     objecttolerance="10"
     gridtolerance="10"
     guidetolerance="10"
     inkscape:pageopacity="0"
     inkscape:pageshadow="2"
     inkscape:window-width="1359"
     inkscape:window-height="835"
     id="namedview880"
     showgrid="false"
     showguides="true"
     inkscape:guide-bbox="true"
     inkscape:zoom="41.7193"
     inkscape:cx="7.818241"
     inkscape:cy="5.5963852"
     inkscape:window-x="388"
     inkscape:window-y="139"
     inkscape:window-maximized="0"
     inkscape:current-layer="svg878">
    <sodipodi:guide
       position="5.7767029,2.9962152"
       orientation="0,1"
       id="guide1437"
       inkscape:locked="false" />
  </sodipodi:namedview>
  <g
     id="g1564">
    <path
       d="m 4,2 v 2 h 6 c 0.428,0 1,0.614 1,1 V 6 H 6 C 5.08,6 4.264,6.38 3.75,6.965 A 3.037,3.037 0 0 0 3.013,9.01 C 3.019,9.73 3.259,10.459 3.771,11.037 4.284,11.616 5.091,12 6,12 h 7 V 5 A 3,3 0 0 0 10,2 Z m 2,6 h 5 v 2 H 6 C 5.602,10 5.421,9.884 5.27,9.713 A 1.138,1.138 0 0 1 5.013,8.99 C 5.011,8.71 5.106,8.45 5.252,8.285 5.397,8.12 5.577,8 6,8 Z"
       overflow="visible"
       style="font-weight:400;font-family:sans-serif;font-variant-ligatures:normal;font-variant-position:normal;font-variant-caps:normal;font-variant-numeric:normal;font-variant-alternates:normal;font-feature-settings:normal;text-indent:0;text-decoration:none;text-decoration-line:none;text-decoration-style:solid;text-decoration-color:#000000;text-transform:none;text-orientation:mixed;white-space:normal;shape-padding:0;overflow:visible;isolation:auto;mix-blend-mode:normal;"
       id="path872"
       inkscape:connector-curvature="0" />
    <path
       sodipodi:nodetypes="ccccccccccccccccc"
       id="path851"
       style="font-variant-ligatures:normal;font-variant-position:normal;font-variant-caps:normal;font-variant-numeric:normal;font-variant-alternates:normal;font-feature-settings:normal;text-indent:0;text-decoration:none;text-decoration-line:none;text-decoration-style:solid;text-decoration-color:#000000;text-transform:none;text-orientation:mixed;shape-padding:0;overflow:visible;isolation:auto;mix-blend-mode:normal;fill-opacity:1;stroke-width:0.72003782"
       overflow="visible"
       d="m 4.0049985,13 -1.8806418,1.526978 c -0.3770871,0.306304 0.1885435,0.765761 0.5656305,0.459457 l 1.3150113,-1.06882 1.5978269,1.297899 1.5978266,-1.297899 1.5978268,1.297899 1.5978262,-1.297899 1.597827,1.297899 1.880642,-1.526978 C 14.251861,13.382232 13.68623,12.922775 13.309143,13.229079 L 11.994132,14.297899 10.396305,13 8.7984788,14.297899 7.200652,13 5.6028255,14.297899 Z"
       inkscape:connector-curvature="0" />
  </g>
</svg>
