/* XPM */
static char * stock_zoom_fit_tall_xpm[] = {
"24 24 131 2",
"  	c None",
". 	c #000000",
"+ 	c #30302D",
"@ 	c #7E7E75",
"# 	c #B3B3A5",
"$ 	c #CFCFBE",
"% 	c #D2D2C1",
"& 	c #BABAAA",
"* 	c #848479",
"= 	c #31312D",
"- 	c #87877F",
"; 	c #D7D7CC",
"> 	c #DADACD",
", 	c #DADACC",
"' 	c #DADACB",
") 	c #DCDCCC",
"! 	c #DFDFCF",
"~ 	c #DEDECD",
"{ 	c #D9D9C8",
"] 	c #7E7E73",
"^ 	c #A6A69D",
"/ 	c #E2E2D9",
"( 	c #E9E9E2",
"_ 	c #EAEAE2",
": 	c #E6E6DB",
"< 	c #E3E3D5",
"[ 	c #E3E3D3",
"} 	c #DFDFCE",
"| 	c #D9D9C7",
"1 	c #D4D4C3",
"2 	c #929285",
"3 	c #86867E",
"4 	c #E0E0D8",
"5 	c #EAEADF",
"6 	c #E2E2D4",
"7 	c #C4C4B4",
"8 	c #717168",
"9 	c #30302C",
"0 	c #D6D6CA",
"a 	c #E7E7DF",
"b 	c #C6C6B5",
"c 	c #BFBFAE",
"d 	c #B9B9AA",
"e 	c #282824",
"f 	c #D9D9CC",
"g 	c #E6E6DD",
"h 	c #F9F9F5",
"i 	c #C8C8B9",
"j 	c #B9B9A9",
"k 	c #B4B4A4",
"l 	c #68685F",
"m 	c #B3B3A6",
"n 	c #E4E4D8",
"o 	c #EFEFE6",
"p 	c #C3C3B3",
"q 	c #B3B3A4",
"r 	c #AEAE9F",
"s 	c #909083",
"t 	c #D1D1C0",
"u 	c #DBDBCC",
"v 	c #E8E8DB",
"w 	c #E6E6DA",
"x 	c #E2E2D5",
"y 	c #BDBDAD",
"z 	c #B8B8A8",
"A 	c #B3B3A3",
"B 	c #A9A99A",
"C 	c #A1A192",
"D 	c #D5D5C3",
"E 	c #E2E2D1",
"F 	c #DBDBCB",
"G 	c #D6D6C7",
"H 	c #B7B7A8",
"I 	c #B2B2A3",
"J 	c #ADAD9E",
"K 	c #A8A899",
"L 	c #A3A395",
"M 	c #9B9B8D",
"N 	c #BDBDAE",
"O 	c #DBDBCA",
"P 	c #CDCDBD",
"Q 	c #B2B2A2",
"R 	c #A3A394",
"S 	c #9E9E8F",
"T 	c #828275",
"U 	c #DADAC8",
"V 	c #D5D5C4",
"W 	c #ACAC9D",
"X 	c #9D9D8F",
"Y 	c #98988A",
"Z 	c #57574F",
"` 	c #989889",
" .	c #1F1F1C",
"..	c #7B7B71",
"+.	c #CACAB9",
"@.	c #B0B0A1",
"#.	c #ABAB9C",
"$.	c #929284",
"%.	c #53534B",
"&.	c #8D8D82",
"*.	c #BFBFAF",
"=.	c #B5B5A5",
"-.	c #B0B0A0",
";.	c #A6A697",
">.	c #9C9C8D",
",.	c #969689",
"'.	c #919184",
").	c #65655C",
"!.	c #6E6E65",
"~.	c #B4B4A5",
"{.	c #AFAFA0",
"].	c #AAAA9B",
"^.	c #A5A596",
"/.	c #A0A092",
"(.	c #969688",
"_.	c #919183",
":.	c #241D14",
"<.	c #211100",
"[.	c #262623",
"}.	c #8C8C80",
"|.	c #9D9D8E",
"1.	c #7F7F74",
"2.	c #55554E",
"3.	c #E9D1B8",
"4.	c #A6825C",
"5.	c #582D00",
"6.	c #0B0600",
"7.	c #160B00",
"8.	c #4D2800",
"9.	c #371C00",
"0.	c #372B1F",
"              . . . . . .                       ",
"          . . . . . . . . . .                   ",
"        . . + @ # $ % & * = . .                 ",
"      . . - ; > , ' ) ! ~ { ] . .               ",
"    . . ^ / ( _ : < [ } | 1 $ 2 . .             ",
"  . . 3 4 . . . . 5 6 . . . . 7 8 . .           ",
"  . 9 0 a . b b . . . . b b . c d e .           ",
". . @ f g . b h . . . . i b . j k l . .         ",
". . m , n . b o . . . . p b . q r s . .         ",
". . t u 6 v w x . . . . y z A r B C . .         ",
". . D } E ! F G . . . . H I J K L M . .         ",
". . N } O . b P . . . . Q b . R S T . .         ",
". . * U V . b b . . . . W b . X Y Z . .         ",
"  . 9 1 $ . b b . . . . b b . ` 2  ..           ",
"  . . ..+.. . . . @.#.. . . . $.%.. .           ",
"    . . &.*.& =.-.#.;.C >.,.'.).. . .           ",
"      . . !.~.{.].^./.M (._.%.. . :.<..         ",
"        . . [.).}.|.` 1.2. .. . :.3.4.5.6.      ",
"          . . . . . . . . . . . 7.4.3.4.5.6.    ",
"              . . . . . .       . 8.4.3.4.5..   ",
"                                  6.5.4.3.4.9.. ",
"                                    6.5.4.3.4.. ",
"                                      6.8.4.3.. ",
"                                        . 7.0.. "};
