/* XPM */
static char * stock_zoom_fit_xpm[] = {
"24 24 154 2",
"  	c None",
". 	c #000000",
"+ 	c #30302D",
"@ 	c #7E7E75",
"# 	c #B3B3A5",
"$ 	c #CFCFBE",
"% 	c #D2D2C1",
"& 	c #BABAAA",
"* 	c #848479",
"= 	c #31312D",
"- 	c #87877F",
"; 	c #D7D7CC",
"> 	c #DADACD",
", 	c #DADACC",
"' 	c #DADACB",
") 	c #DCDCCC",
"! 	c #DFDFCF",
"~ 	c #DEDECD",
"{ 	c #D9D9C8",
"] 	c #7E7E73",
"^ 	c #A6A69D",
"/ 	c #E2E2D9",
"( 	c #E9E9E2",
"_ 	c #EAEAE2",
": 	c #E6E6DB",
"< 	c #E3E3D5",
"[ 	c #E3E3D3",
"} 	c #DFDFCE",
"| 	c #D9D9C7",
"1 	c #D4D4C3",
"2 	c #929285",
"3 	c #86867E",
"4 	c #E0E0D8",
"5 	c #EAEADF",
"6 	c #E2E2D4",
"7 	c #C4C4B4",
"8 	c #717168",
"9 	c #30302C",
"0 	c #D6D6CA",
"a 	c #E7E7DF",
"b 	c #DFDFD0",
"c 	c #BFBFAE",
"d 	c #B9B9AA",
"e 	c #282824",
"f 	c #D9D9CC",
"g 	c #E6E6DD",
"h 	c #F9F9F5",
"i 	c #F0F0E9",
"j 	c #E4E4D9",
"k 	c #D9D9CA",
"l 	c #D0D0C0",
"m 	c #C8C8B9",
"n 	c #B9B9A9",
"o 	c #B4B4A4",
"p 	c #68685F",
"q 	c #B3B3A6",
"r 	c #E4E4D8",
"s 	c #EFEFE6",
"t 	c #E7E7DC",
"u 	c #DCDCCF",
"v 	c #D2D2C3",
"w 	c #CACABA",
"x 	c #C3C3B3",
"y 	c #B3B3A4",
"z 	c #AEAE9F",
"A 	c #909083",
"B 	c #D1D1C0",
"C 	c #DBDBCC",
"D 	c #E8E8DB",
"E 	c #E6E6DA",
"F 	c #E2E2D5",
"G 	c #CACABB",
"H 	c #BDBDAD",
"I 	c #B8B8A8",
"J 	c #B3B3A3",
"K 	c #A9A99A",
"L 	c #A1A192",
"M 	c #D5D5C3",
"N 	c #E2E2D1",
"O 	c #DBDBCB",
"P 	c #D6D6C7",
"Q 	c #D0D0C1",
"R 	c #C3C3B2",
"S 	c #BDBDAC",
"T 	c #B7B7A8",
"U 	c #B2B2A3",
"V 	c #ADAD9E",
"W 	c #A8A899",
"X 	c #A3A395",
"Y 	c #9B9B8D",
"Z 	c #BDBDAE",
"` 	c #DBDBCA",
" .	c #CDCDBD",
"..	c #C8C8B8",
"+.	c #C1C1B2",
"@.	c #BCBCAC",
"#.	c #B7B7A7",
"$.	c #B2B2A2",
"%.	c #A3A394",
"&.	c #9E9E8F",
"*.	c #828275",
"=.	c #DADAC8",
"-.	c #D5D5C4",
";.	c #C6C6B5",
">.	c #C1C1B0",
",.	c #BBBBAC",
"'.	c #B6B6A7",
").	c #B1B1A2",
"!.	c #ACAC9D",
"~.	c #9D9D8F",
"{.	c #98988A",
"].	c #57574F",
"^.	c #B6B6A6",
"/.	c #B1B1A1",
"(.	c #989889",
"_.	c #1F1F1C",
":.	c #7B7B71",
"<.	c #CACAB9",
"[.	c #B0B0A1",
"}.	c #ABAB9C",
"|.	c #929284",
"1.	c #53534B",
"2.	c #8D8D82",
"3.	c #BFBFAF",
"4.	c #B5B5A5",
"5.	c #B0B0A0",
"6.	c #A6A697",
"7.	c #9C9C8D",
"8.	c #969689",
"9.	c #919184",
"0.	c #65655C",
"a.	c #6E6E65",
"b.	c #B4B4A5",
"c.	c #AFAFA0",
"d.	c #AAAA9B",
"e.	c #A5A596",
"f.	c #A0A092",
"g.	c #969688",
"h.	c #919183",
"i.	c #241D14",
"j.	c #211100",
"k.	c #262623",
"l.	c #8C8C80",
"m.	c #9D9D8E",
"n.	c #7F7F74",
"o.	c #55554E",
"p.	c #E9D1B8",
"q.	c #A6825C",
"r.	c #582D00",
"s.	c #0B0600",
"t.	c #160B00",
"u.	c #4D2800",
"v.	c #371C00",
"w.	c #372B1F",
"              . . . . . .                       ",
"          . . . . . . . . . .                   ",
"        . . + @ # $ % & * = . .                 ",
"      . . - ; > , ' ) ! ~ { ] . .               ",
"    . . ^ / ( _ : < [ } | 1 $ 2 . .             ",
"  . . 3 4 . . . . 5 6 . . . . 7 8 . .           ",
"  . 9 0 a . . . . 5 b . . . . c d e .           ",
". . @ f g . . h i j k l m . . n o p . .         ",
". . q , r . . s t u v w x . . y z A . .         ",
". . B C 6 D E F > v G x H I J z K L . .         ",
". . M } N ! O P Q w R S T U V W X Y . .         ",
". . Z } ` . .  ...+.@.#.$.. . %.&.*.. .         ",
". . * =.-.. . ;.>.,.'.).!.. . ~.{.].. .         ",
"  . 9 1 $ . . . . ^./.. . . . (.2 _..           ",
"  . . :.<.. . . . [.}.. . . . |.1.. .           ",
"    . . 2.3.& 4.5.}.6.L 7.8.9.0.. . .           ",
"      . . a.b.c.d.e.f.Y g.h.1.. . i.j..         ",
"        . . k.0.l.m.(.n.o._.. . i.p.q.r.s.      ",
"          . . . . . . . . . . . t.q.p.q.r.s.    ",
"              . . . . . .       . u.q.p.q.r..   ",
"                                  s.r.q.p.q.v.. ",
"                                    s.r.q.p.q.. ",
"                                      s.u.q.p.. ",
"                                        . t.w.. "};
