/* XPM */
static char * stock_zoom_fit_wide_xpm[] = {
"24 24 130 2",
"  	c None",
". 	c #000000",
"+ 	c #30302D",
"@ 	c #7E7E75",
"# 	c #B3B3A5",
"$ 	c #CFCFBE",
"% 	c #D2D2C1",
"& 	c #BABAAA",
"* 	c #848479",
"= 	c #31312D",
"- 	c #87877F",
"; 	c #D7D7CC",
"> 	c #DADACD",
", 	c #DADACC",
"' 	c #DADACB",
") 	c #DCDCCC",
"! 	c #DFDFCF",
"~ 	c #DEDECD",
"{ 	c #D9D9C8",
"] 	c #7E7E73",
"^ 	c #A6A69D",
"/ 	c #E2E2D9",
"( 	c #E9E9E2",
"_ 	c #EAEAE2",
": 	c #E6E6DB",
"< 	c #E3E3D5",
"[ 	c #E3E3D3",
"} 	c #DFDFCE",
"| 	c #D9D9C7",
"1 	c #D4D4C3",
"2 	c #929285",
"3 	c #86867E",
"4 	c #E0E0D8",
"5 	c #EAEADF",
"6 	c #E2E2D4",
"7 	c #C4C4B4",
"8 	c #717168",
"9 	c #30302C",
"0 	c #D6D6CA",
"a 	c #E7E7DF",
"b 	c #C6C6B5",
"c 	c #DFDFD0",
"d 	c #BFBFAE",
"e 	c #B9B9AA",
"f 	c #282824",
"g 	c #D9D9CC",
"h 	c #E6E6DD",
"i 	c #F9F9F5",
"j 	c #F0F0E9",
"k 	c #E4E4D9",
"l 	c #D9D9CA",
"m 	c #D0D0C0",
"n 	c #C8C8B9",
"o 	c #B9B9A9",
"p 	c #B4B4A4",
"q 	c #68685F",
"r 	c #B3B3A6",
"s 	c #E4E4D8",
"t 	c #B3B3A4",
"u 	c #AEAE9F",
"v 	c #909083",
"w 	c #D1D1C0",
"x 	c #DBDBCC",
"y 	c #E8E8DB",
"z 	c #B3B3A3",
"A 	c #A9A99A",
"B 	c #A1A192",
"C 	c #D5D5C3",
"D 	c #E2E2D1",
"E 	c #ADAD9E",
"F 	c #A8A899",
"G 	c #A3A395",
"H 	c #9B9B8D",
"I 	c #BDBDAE",
"J 	c #DBDBCA",
"K 	c #A3A394",
"L 	c #9E9E8F",
"M 	c #828275",
"N 	c #DADAC8",
"O 	c #D5D5C4",
"P 	c #C1C1B0",
"Q 	c #BBBBAC",
"R 	c #B6B6A7",
"S 	c #B1B1A2",
"T 	c #ACAC9D",
"U 	c #9D9D8F",
"V 	c #98988A",
"W 	c #57574F",
"X 	c #B6B6A6",
"Y 	c #B1B1A1",
"Z 	c #989889",
"` 	c #1F1F1C",
" .	c #7B7B71",
"..	c #CACAB9",
"+.	c #B0B0A1",
"@.	c #ABAB9C",
"#.	c #929284",
"$.	c #53534B",
"%.	c #8D8D82",
"&.	c #BFBFAF",
"*.	c #B5B5A5",
"=.	c #B0B0A0",
"-.	c #A6A697",
";.	c #9C9C8D",
">.	c #969689",
",.	c #919184",
"'.	c #65655C",
").	c #6E6E65",
"!.	c #B4B4A5",
"~.	c #AFAFA0",
"{.	c #AAAA9B",
"].	c #A5A596",
"^.	c #A0A092",
"/.	c #969688",
"(.	c #919183",
"_.	c #241D14",
":.	c #211100",
"<.	c #262623",
"[.	c #8C8C80",
"}.	c #9D9D8E",
"|.	c #7F7F74",
"1.	c #55554E",
"2.	c #E9D1B8",
"3.	c #A6825C",
"4.	c #582D00",
"5.	c #0B0600",
"6.	c #160B00",
"7.	c #4D2800",
"8.	c #371C00",
"9.	c #372B1F",
"              . . . . . .                       ",
"          . . . . . . . . . .                   ",
"        . . + @ # $ % & * = . .                 ",
"      . . - ; > , ' ) ! ~ { ] . .               ",
"    . . ^ / ( _ : < [ } | 1 $ 2 . .             ",
"  . . 3 4 . . . . 5 6 . . . . 7 8 . .           ",
"  . 9 0 a . b b b 5 c b b b . d e f .           ",
". . @ g h . b i j k l m n b . o p q . .         ",
". . r , s . . . . . . . . . . t u v . .         ",
". . w x 6 y . . . . . . . . z u A B . .         ",
". . C } D ! . . . . . . . . E F G H . .         ",
". . I } J . . . . . . . . . . K L M . .         ",
". . * N O . b b P Q R S T b . U V W . .         ",
"  . 9 1 $ . b b b X Y b b b . Z 2 ` .           ",
"  . .  .... . . . +.@.. . . . #.$.. .           ",
"    . . %.&.& *.=.@.-.B ;.>.,.'.. . .           ",
"      . . ).!.~.{.].^.H /.(.$.. . _.:..         ",
"        . . <.'.[.}.Z |.1.` . . _.2.3.4.5.      ",
"          . . . . . . . . . . . 6.3.2.3.4.5.    ",
"              . . . . . .       . 7.3.2.3.4..   ",
"                                  5.4.3.2.3.8.. ",
"                                    5.4.3.2.3.. ",
"                                      5.7.3.2.. ",
"                                        . 6.9.. "};

