/* XPM */
static char * stock_zoom_out_xpm[] = {
"24 24 176 2",
"  	c None",
". 	c #000000",
"+ 	c #30302D",
"@ 	c #7E7E75",
"# 	c #B3B3A5",
"$ 	c #CFCFBE",
"% 	c #D2D2C1",
"& 	c #BABAAA",
"* 	c #848479",
"= 	c #31312D",
"- 	c #87877F",
"; 	c #D7D7CC",
"> 	c #DADACD",
", 	c #DADACC",
"' 	c #DADACB",
") 	c #DCDCCC",
"! 	c #DFDFCF",
"~ 	c #DEDECD",
"{ 	c #D9D9C8",
"] 	c #7E7E73",
"^ 	c #A6A69D",
"/ 	c #E2E2D9",
"( 	c #E9E9E2",
"_ 	c #EAEAE2",
": 	c #E6E6DB",
"< 	c #E3E3D5",
"[ 	c #E3E3D3",
"} 	c #DFDFCE",
"| 	c #D9D9C7",
"1 	c #D4D4C3",
"2 	c #929285",
"3 	c #86867E",
"4 	c #E0E0D8",
"5 	c #F0F0EB",
"6 	c #F8F8F5",
"7 	c #F7F7F3",
"8 	c #F0F0E9",
"9 	c #EAEADF",
"0 	c #E2E2D4",
"a 	c #DADACA",
"b 	c #D3D3C2",
"c 	c #CECEBD",
"d 	c #C9C9B8",
"e 	c #C4C4B4",
"f 	c #717168",
"g 	c #30302C",
"h 	c #D6D6CA",
"i 	c #E7E7DF",
"j 	c #F6F6F3",
"k 	c #FEFEFD",
"l 	c #FCFCFA",
"m 	c #F5F5EF",
"n 	c #DFDFD0",
"o 	c #D6D6C6",
"p 	c #C4C4B3",
"q 	c #BFBFAE",
"r 	c #B9B9AA",
"s 	c #282824",
"t 	c #D9D9CC",
"u 	c #E6E6DD",
"v 	c #F3F3EE",
"w 	c #FAFAF7",
"x 	c #F9F9F5",
"y 	c #E4E4D9",
"z 	c #D9D9CA",
"A 	c #D0D0C0",
"B 	c #C8C8B9",
"C 	c #C3C3B3",
"D 	c #BEBEAE",
"E 	c #B9B9A9",
"F 	c #B4B4A4",
"G 	c #68685F",
"H 	c #B3B3A6",
"I 	c #E4E4D8",
"J 	c #EDEDE4",
"K 	c #F2F2EA",
"L 	c #EFEFE6",
"M 	c #E7E7DC",
"N 	c #DCDCCF",
"O 	c #D2D2C3",
"P 	c #CACABA",
"Q 	c #BEBEAD",
"R 	c #B8B8A9",
"S 	c #B3B3A4",
"T 	c #AEAE9F",
"U 	c #909083",
"V 	c #D1D1C0",
"W 	c #DBDBCC",
"X 	c #A9A99A",
"Y 	c #A1A192",
"Z 	c #D5D5C3",
"` 	c #E2E2D1",
" .	c #A8A899",
"..	c #A3A395",
"+.	c #9B9B8D",
"@.	c #BDBDAE",
"#.	c #DBDBCA",
"$.	c #D2D2C2",
"%.	c #CDCDBD",
"&.	c #C8C8B8",
"*.	c #C1C1B2",
"=.	c #BCBCAC",
"-.	c #B7B7A7",
";.	c #B2B2A2",
">.	c #ADAD9E",
",.	c #A3A394",
"'.	c #9E9E8F",
").	c #828275",
"!.	c #DADAC8",
"~.	c #D5D5C4",
"{.	c #D0D0BF",
"].	c #CBCBBA",
"^.	c #C6C6B5",
"/.	c #C1C1B0",
"(.	c #BBBBAC",
"_.	c #B6B6A7",
":.	c #B1B1A2",
"<.	c #ACAC9D",
"[.	c #A7A798",
"}.	c #A2A294",
"|.	c #9D9D8F",
"1.	c #98988A",
"2.	c #57574F",
"3.	c #CACAB9",
"4.	c #C5C5B5",
"5.	c #C0C0B0",
"6.	c #BBBBAB",
"7.	c #B6B6A6",
"8.	c #B1B1A1",
"9.	c #A2A293",
"0.	c #9D9D8E",
"a.	c #989889",
"b.	c #1F1F1C",
"c.	c #7B7B71",
"d.	c #C5C5B4",
"e.	c #C0C0AF",
"f.	c #BABAAB",
"g.	c #B5B5A6",
"h.	c #B0B0A1",
"i.	c #ABAB9C",
"j.	c #A6A697",
"k.	c #A1A193",
"l.	c #9C9C8E",
"m.	c #979789",
"n.	c #929284",
"o.	c #53534B",
"p.	c #8D8D82",
"q.	c #BFBFAF",
"r.	c #B5B5A5",
"s.	c #B0B0A0",
"t.	c #9C9C8D",
"u.	c #969689",
"v.	c #919184",
"w.	c #65655C",
"x.	c #6E6E65",
"y.	c #B4B4A5",
"z.	c #AFAFA0",
"A.	c #AAAA9B",
"B.	c #A5A596",
"C.	c #A0A092",
"D.	c #969688",
"E.	c #919183",
"F.	c #241D14",
"G.	c #211100",
"H.	c #262623",
"I.	c #8C8C80",
"J.	c #7F7F74",
"K.	c #55554E",
"L.	c #E9D1B8",
"M.	c #A6825C",
"N.	c #582D00",
"O.	c #0B0600",
"P.	c #160B00",
"Q.	c #4D2800",
"R.	c #371C00",
"S.	c #372B1F",
"              . . . . . .                       ",
"          . . . . . . . . . .                   ",
"        . . + @ # $ % & * = . .                 ",
"      . . - ; > , ' ) ! ~ { ] . .               ",
"    . . ^ / ( _ : < [ } | 1 $ 2 . .             ",
"  . . 3 4 5 6 7 8 9 0 a b c d e f . .           ",
"  . g h i j k l m 9 n o $ d p q r s .           ",
". . @ t u v w x 8 y z A B C D E F G . .         ",
". . H , I J K L M N O P C Q R S T U . .         ",
". . V W 0 . . . . . . . . . . T X Y . .         ",
". . Z } ` . . . . . . . . . .  ...+.. .         ",
". . @.} #.o $.%.&.*.=.-.;.>. .,.'.).. .         ",
". . * !.~.{.].^./.(._.:.<.[.}.|.1.2.. .         ",
"  . g 1 $ 3.4.5.6.7.8.<.[.9.0.a.2 b..           ",
"  . . c.3.d.e.f.g.h.i.j.k.l.m.n.o.. .           ",
"    . . p.q.& r.s.i.j.Y t.u.v.w.. . .           ",
"      . . x.y.z.A.B.C.+.D.E.o.. . F.G..         ",
"        . . H.w.I.0.a.J.K.b.. . F.L.M.N.O.      ",
"          . . . . . . . . . . . P.M.L.M.N.O.    ",
"              . . . . . .       . Q.M.L.M.N..   ",
"                                  O.N.M.L.M.R.. ",
"                                    O.N.M.L.M.. ",
"                                      O.Q.M.L.. ",
"                                        . P.S.. "};