/* XPM */
static char * stock_zoom_in_xpm[] = {
"24 24 163 2",
"  	c None",
". 	c #000000",
"+ 	c #30302D",
"@ 	c #7E7E75",
"# 	c #B3B3A5",
"$ 	c #CFCFBE",
"% 	c #D2D2C1",
"& 	c #BABAAA",
"* 	c #848479",
"= 	c #31312D",
"- 	c #87877F",
"; 	c #D7D7CC",
"> 	c #DADACD",
", 	c #DADACC",
"' 	c #DADACB",
") 	c #DCDCCC",
"! 	c #DFDFCF",
"~ 	c #DEDECD",
"{ 	c #D9D9C8",
"] 	c #7E7E73",
"^ 	c #A6A69D",
"/ 	c #E2E2D9",
"( 	c #E9E9E2",
"_ 	c #EAEAE2",
": 	c #E6E6DB",
"< 	c #E3E3D5",
"[ 	c #E3E3D3",
"} 	c #DFDFCE",
"| 	c #D9D9C7",
"1 	c #D4D4C3",
"2 	c #929285",
"3 	c #86867E",
"4 	c #E0E0D8",
"5 	c #F0F0EB",
"6 	c #F8F8F5",
"7 	c #F7F7F3",
"8 	c #F0F0E9",
"9 	c #DADACA",
"0 	c #D3D3C2",
"a 	c #CECEBD",
"b 	c #C9C9B8",
"c 	c #C4C4B4",
"d 	c #717168",
"e 	c #30302C",
"f 	c #D6D6CA",
"g 	c #E7E7DF",
"h 	c #F6F6F3",
"i 	c #FEFEFD",
"j 	c #FCFCFA",
"k 	c #F5F5EF",
"l 	c #D6D6C6",
"m 	c #C4C4B3",
"n 	c #BFBFAE",
"o 	c #B9B9AA",
"p 	c #282824",
"q 	c #D9D9CC",
"r 	c #E6E6DD",
"s 	c #F3F3EE",
"t 	c #FAFAF7",
"u 	c #F9F9F5",
"v 	c #D0D0C0",
"w 	c #C8C8B9",
"x 	c #C3C3B3",
"y 	c #BEBEAE",
"z 	c #B9B9A9",
"A 	c #B4B4A4",
"B 	c #68685F",
"C 	c #B3B3A6",
"D 	c #E4E4D8",
"E 	c #EDEDE4",
"F 	c #F2F2EA",
"G 	c #EFEFE6",
"H 	c #E7E7DC",
"I 	c #CACABA",
"J 	c #BEBEAD",
"K 	c #B8B8A9",
"L 	c #B3B3A4",
"M 	c #AEAE9F",
"N 	c #909083",
"O 	c #D1D1C0",
"P 	c #DBDBCC",
"Q 	c #E2E2D4",
"R 	c #A9A99A",
"S 	c #A1A192",
"T 	c #D5D5C3",
"U 	c #E2E2D1",
"V 	c #A8A899",
"W 	c #A3A395",
"X 	c #9B9B8D",
"Y 	c #BDBDAE",
"Z 	c #DBDBCA",
"` 	c #D2D2C2",
" .	c #CDCDBD",
"..	c #C8C8B8",
"+.	c #B7B7A7",
"@.	c #B2B2A2",
"#.	c #ADAD9E",
"$.	c #A3A394",
"%.	c #9E9E8F",
"&.	c #828275",
"*.	c #DADAC8",
"=.	c #D5D5C4",
"-.	c #D0D0BF",
";.	c #CBCBBA",
">.	c #C6C6B5",
",.	c #C1C1B0",
"'.	c #B1B1A2",
").	c #ACAC9D",
"!.	c #A7A798",
"~.	c #A2A294",
"{.	c #9D9D8F",
"].	c #98988A",
"^.	c #57574F",
"/.	c #CACAB9",
"(.	c #C5C5B5",
"_.	c #C0C0B0",
":.	c #BBBBAB",
"<.	c #A2A293",
"[.	c #9D9D8E",
"}.	c #989889",
"|.	c #1F1F1C",
"1.	c #7B7B71",
"2.	c #C5C5B4",
"3.	c #C0C0AF",
"4.	c #BABAAB",
"5.	c #B5B5A6",
"6.	c #A6A697",
"7.	c #A1A193",
"8.	c #9C9C8E",
"9.	c #979789",
"0.	c #929284",
"a.	c #53534B",
"b.	c #8D8D82",
"c.	c #BFBFAF",
"d.	c #B5B5A5",
"e.	c #B0B0A0",
"f.	c #ABAB9C",
"g.	c #9C9C8D",
"h.	c #969689",
"i.	c #919184",
"j.	c #65655C",
"k.	c #6E6E65",
"l.	c #B4B4A5",
"m.	c #AFAFA0",
"n.	c #AAAA9B",
"o.	c #A5A596",
"p.	c #A0A092",
"q.	c #969688",
"r.	c #919183",
"s.	c #241D14",
"t.	c #211100",
"u.	c #262623",
"v.	c #8C8C80",
"w.	c #7F7F74",
"x.	c #55554E",
"y.	c #E9D1B8",
"z.	c #A6825C",
"A.	c #582D00",
"B.	c #0B0600",
"C.	c #160B00",
"D.	c #4D2800",
"E.	c #371C00",
"F.	c #372B1F",
"              . . . . . .                       ",
"          . . . . . . . . . .                   ",
"        . . + @ # $ % & * = . .                 ",
"      . . - ; > , ' ) ! ~ { ] . .               ",
"    . . ^ / ( _ : < [ } | 1 $ 2 . .             ",
"  . . 3 4 5 6 7 8 . . 9 0 a b c d . .           ",
"  . e f g h i j k . . l $ b m n o p .           ",
". . @ q r s t u 8 . . v w x y z A B . .         ",
". . C , D E F G H . . I x J K L M N . .         ",
". . O P Q . . . . . . . . . . M R S . .         ",
". . T } U . . . . . . . . . . V W X . .         ",
". . Y } Z l `  .... . +.@.#.V $.%.&.. .         ",
". . * *.=.-.;.>.,.. . '.).!.~.{.].^.. .         ",
"  . e 1 $ /.(._.:.. . ).!.<.[.}.2 |..           ",
"  . . 1./.2.3.4.5.. . 6.7.8.9.0.a.. .           ",
"    . . b.c.& d.e.f.6.S g.h.i.j.. . .           ",
"      . . k.l.m.n.o.p.X q.r.a.. . s.t..         ",
"        . . u.j.v.[.}.w.x.|.. . s.y.z.A.B.      ",
"          . . . . . . . . . . . C.z.y.z.A.B.    ",
"              . . . . . .       . D.z.y.z.A..   ",
"                                  B.A.z.y.z.E.. ",
"                                    B.A.z.y.z.. ",
"                                      B.D.z.y.. ",
"                                        . C.F.. "};