/* XPM */
static char *xpdfIcon[] = {
/* width height num_colors chars_per_pixel */
"    48    48        3            1",
/* colors */
". c #000000",
"# c #ffffff",
"o c #e00000",
/* pixels */
"................................................",
"................................................",
"................................................",
"................................................",
".ooooooo..................................ooo...",
"..ooooooo................................ooo....",
"...ooooooo..............................ooo.....",
"....ooooooo............................ooo......",
".....ooooooo..........................ooo.......",
"......ooooooo...............###......####.......",
".......ooooooo...............##.....##o.##......",
"........ooooooo..............##....##o..##......",
".........ooooooo.............##...o##...........",
"..........ooooooo............##..o.##...........",
"...........ooooooo...........##.ooo##...........",
"............ooooooo..........##ooo.##...........",
".............ooooooo........##ooo.##............",
"..............ooooooo.......##oo..##............",
"..........#....ooooooo......##o...##............",
".........##.####ooooooo####o##...######.........",
"........####...##ooooo##..o###....##............",
".........##.....##ooo##ooooo##....##............",
".........##.....##.oo##ooo..##....##............",
".........##.....##..##ooooo##....##.............",
".........##.....##..##ooooo##....##.............",
".........##.....##..##ooooo##....##.............",
"........##.....##...##ooooo##o...##.............",
"........##.....##..o##..ooo##oo..##.............",
"........###...##..ooo##..o###ooo.##.............",
"........##.####..ooo..####o###oo####............",
"........##......ooo........ooooooo..............",
"........##.....ooo..........ooooooo.............",
"........##....ooo............ooooooo............",
".......##....ooo..............ooooooo...........",
".......##...ooo................ooooooo..........",
".......##..ooo..................ooooooo.........",
".......##.ooo....................ooooooo........",
".......##ooo......................ooooooo.......",
".......##oo........................ooooooo......",
"......####..........................ooooooo.....",
"......ooo............................ooooooo....",
".....ooo..............................ooooooo...",
"....ooo................................ooooooo..",
"...ooo..................................ooooooo.",
"................................................",
"................................................",
"................................................",
"................................................"
};
