#define zoomOut_width 15
#define zoomOut_height 15
static unsigned char zoomOut_bits[] = {
   0x80, 0x07, 0x60, 0x18, 0x10, 0x20, 0x10, 0x20, 0x08, 0x40, 0xc8, 0x4f,
   0xc8, 0x4f, 0x08, 0x40, 0x10, 0x20, 0x10, 0x20, 0x78, 0x18, 0x9c, 0x07,
   0x0e, 0x00, 0x07, 0x00, 0x03, 0x00};
