#define zoomIn_width 15
#define zoomIn_height 15
static unsigned char zoomIn_bits[] = {
   0x80, 0x07, 0x60, 0x18, 0x10, 0x20, 0x10, 0x23, 0x08, 0x43, 0xc8, 0x4f,
   0xc8, 0x4f, 0x08, 0x43, 0x10, 0x23, 0x10, 0x20, 0x78, 0x18, 0x9c, 0x07,
   0x0e, 0x00, 0x07, 0x00, 0x03, 0x00};
